<svg width="44" height="44" viewBox="0 0 44 44" fill="none" xmlns="http://www.w3.org/2000/svg">
<g clip-path="url(#clip0_258_360)">
<circle cx="22" cy="22" r="22" fill="#004449"/>
<path d="M32.6754 11.4286L33.1659 11.4286C33.4266 11.4282 33.679 11.521 33.8781 11.6905C34.0771 11.8601 34.2098 12.0952 34.2526 12.3541L34.9851 16.7827C35.0113 16.9412 35.0029 17.1036 34.9604 17.2586C34.918 17.4135 34.8426 17.5573 34.7394 17.6799C34.6362 17.8025 34.5077 17.9011 34.3629 17.9687C34.218 18.0363 34.0603 18.0714 33.9006 18.0714H32.2046L30.8628 36.9726C30.8428 37.2518 30.7184 37.513 30.5147 37.7036C30.3111 37.8943 30.0432 38.0002 29.7651 38H14.2261C13.9476 38.0007 13.6792 37.8951 13.4751 37.7044C13.2709 37.5137 13.1463 37.2522 13.1262 36.9726L11.7888 18.0714H10.0994C9.93971 18.0714 9.78198 18.0363 9.63714 17.9687C9.4923 17.9011 9.36382 17.8025 9.26063 17.6799C9.15743 17.5573 9.082 17.4135 9.03956 17.2586C8.99713 17.1036 8.98871 16.9412 9.01489 16.7827L9.74741 12.3541C9.79017 12.0952 9.9229 11.8601 10.1219 11.6905C10.321 11.521 10.5734 11.4282 10.8341 11.4286H11.3158L11.0849 8.18686C11.074 8.03509 11.0943 7.88269 11.1445 7.73918C11.1948 7.59566 11.2739 7.46411 11.3769 7.35274C11.4799 7.24137 11.6046 7.15257 11.7432 7.09188C11.8818 7.03119 12.0314 6.99991 12.1825 7L31.8087 7C31.9598 6.99991 32.1094 7.03119 32.248 7.09188C32.3866 7.15257 32.5113 7.24137 32.6143 7.35274C32.7173 7.46411 32.7964 7.59566 32.8467 7.73918C32.8969 7.88269 32.9172 8.03509 32.9063 8.18686L32.6754 11.4286ZM30.4712 11.4286L30.6274 9.21429L13.3638 9.21429L13.52 11.4286H30.4712ZM11.6304 15.8571L32.6028 15.8571L32.2354 13.6429H11.7646L11.3972 15.8571H11.6304ZM13.9929 18.0714L15.249 35.7857H28.7422L29.9983 18.0714H13.9929Z" fill="#0BF477"/>
</g>
<defs>
<clipPath id="clip0_258_360">
<rect width="44" height="44" fill="white"/>
</clipPath>
</defs>
</svg>
