<svg width="1141" height="1822" viewBox="0 0 1141 1822" fill="none" xmlns="http://www.w3.org/2000/svg">
<mask id="mask0_312_244" style="mask-type:alpha" maskUnits="userSpaceOnUse" x="0" y="0" width="1141" height="1822">
<rect x="0.5" y="0.5" width="1140" height="1821" fill="#F76538" stroke="black"/>
</mask>
<g mask="url(#mask0_312_244)">
<path d="M141 452H33V23H352.2V111.2H141V205.4H313.2V293.6H141V452ZM528.769 461.6C399.169 461.6 349.369 404 349.369 297.2V23H457.369V297.2C457.369 353 481.369 373.4 528.769 373.4C576.169 373.4 600.169 353 600.169 297.2V23H708.169V297.2C708.169 404 658.369 461.6 528.769 461.6ZM836.602 452H728.602V23H836.602L986.602 278H987.802V23H1095.8V452H987.802L837.802 197H836.602V452ZM141 892H33V463H352.2V551.2H141V645.4H313.2V733.6H141V892ZM381.722 892H265.922L429.122 463H537.722L702.122 892H583.922L556.322 802.6H409.322L381.722 892ZM482.522 562L433.922 720.4H532.322L483.722 562H482.522ZM220.2 1341.6C84 1341.6 15 1246.8 15 1119C15 987.6 87.6 893.4 223.2 893.4C340.2 893.4 402.6 963 412.8 1062.6H302.4C294.6 1015.8 275.4 981.6 218.4 981.6C147 981.6 125.4 1036.8 125.4 1117.2C125.4 1198.2 147 1253.4 218.4 1253.4C276 1253.4 295.2 1219.2 302.4 1171.2H412.8C403.2 1269.6 338.4 1341.6 220.2 1341.6ZM602.714 1332H494.714V991.2H369.914V903H726.914V991.2H602.714V1332ZM205.8 1781.6C93.6 1781.6 9 1724.6 9 1626.2H118.2C118.2 1676 156 1694.6 204.6 1694.6C244.8 1694.6 265.2 1678.4 265.2 1656.2C265.2 1619.6 222.6 1610 163.2 1592C88.8 1569.2 22.2 1540.4 22.2 1463.6C22.2 1370 95.4 1333.4 187.8 1333.4C288 1333.4 366.6 1386.2 369.6 1473.2H260.4C255.6 1440.2 229.2 1420.4 187.8 1420.4C155.4 1420.4 132.6 1431.2 132.6 1455.8C132.6 1484.6 156.6 1494.2 211.2 1510.4C292.2 1534.4 375.6 1557.2 375.6 1646C375.6 1728.2 313.2 1781.6 205.8 1781.6Z" fill="#511124"/>
</g>
</svg>
