<svg width="3597" height="2848" viewBox="0 0 3597 2848" fill="none" xmlns="http://www.w3.org/2000/svg">
<rect x="334.51" y="1498.98" width="912.071" height="105.564" rx="52.7819" transform="rotate(-30 334.51 1498.98)" fill="#0BF477"/>
<rect x="524.423" y="1511.23" width="912.071" height="105.564" rx="52.7819" transform="rotate(-30 524.423 1511.23)" fill="#EEFFE6"/>
<rect x="340.12" y="1739.53" width="912.071" height="105.564" rx="52.7819" transform="rotate(-30 340.12 1739.53)" fill="#D8F8C8"/>
<rect x="565.556" y="2440.81" width="912.071" height="105.564" rx="52.7819" transform="rotate(-30 565.556 2440.81)" fill="#0BF477"/>
<rect x="755.469" y="2453.06" width="912.071" height="105.564" rx="52.7819" transform="rotate(-30 755.469 2453.06)" fill="#EEFFE6"/>
<rect x="571.166" y="2681.36" width="912.071" height="105.564" rx="52.7819" transform="rotate(-30 571.166 2681.36)" fill="#D8F8C8"/>
<rect x="440.556" y="2275.81" width="912.071" height="105.564" rx="52.7819" transform="rotate(-30 440.556 2275.81)" fill="#0AF477"/>
<rect x="2117.51" y="1643.98" width="912.071" height="105.564" rx="52.7819" transform="rotate(-30 2117.51 1643.98)" fill="#0AF477"/>
<rect x="2307.42" y="1656.23" width="912.071" height="105.564" rx="52.7819" transform="rotate(-30 2307.42 1656.23)" fill="#D8F8C8"/>
<rect x="2123.12" y="1884.53" width="912.071" height="105.564" rx="52.7819" transform="rotate(-30 2123.12 1884.53)" fill="#EEFFE6"/>
<rect x="2117.51" y="733.984" width="912.071" height="105.564" rx="52.7819" transform="rotate(-30 2117.51 733.984)" fill="#EEFFE6"/>
<rect x="2307.42" y="746.232" width="912.071" height="105.564" rx="52.7819" transform="rotate(-30 2307.42 746.232)" fill="#D8F8C8"/>
<rect x="2123.12" y="974.534" width="912.071" height="105.564" rx="52.7819" transform="rotate(-30 2123.12 974.534)" fill="#0BF477"/>
</svg>
