<svg width="1481" height="1396" viewBox="0 0 1481 1396" fill="none" xmlns="http://www.w3.org/2000/svg">
<mask id="mask0_329_414" style="mask-type:alpha" maskUnits="userSpaceOnUse" x="0" y="0" width="1481" height="1396">
<rect x="0.5" y="0.5" width="1480" height="1395" fill="white" stroke="black"/>
</mask>
<g mask="url(#mask0_329_414)">
<path d="M106.708 457.632H0.0520156V33.9702H199.736C293.949 33.9702 350.832 77.8177 350.832 154.847C350.832 214.1 317.65 249.06 264.915 260.911V262.096C370.978 280.464 332.463 444.596 356.757 451.706V457.632H245.953C225.215 439.856 263.729 310.091 173.072 310.091H106.708V457.632ZM106.708 222.988H178.997C221.66 222.988 244.176 207.583 244.176 172.031C244.176 136.478 221.66 121.073 178.997 121.073H106.708V222.988ZM685.303 457.632H360.595V33.9702H681.748V121.073H467.251V196.324H652.121V283.427H467.251V370.529H685.303V457.632ZM864.012 467.112C753.208 467.112 669.661 410.822 669.661 313.646H777.502C777.502 362.826 814.832 381.195 862.827 381.195C902.527 381.195 922.673 365.196 922.673 343.273C922.673 307.128 880.603 297.648 821.942 279.872C748.468 257.355 682.697 228.914 682.697 153.069C682.697 60.6342 754.986 24.4897 846.236 24.4897C945.189 24.4897 1022.81 76.6326 1025.77 162.55H917.933C913.193 129.961 887.121 110.407 846.236 110.407C814.239 110.407 791.723 121.073 791.723 145.367C791.723 173.808 815.424 183.289 869.345 199.287C949.337 222.988 1031.7 245.505 1031.7 333.2C1031.7 414.377 970.076 467.112 864.012 467.112Z" fill="#511124"/>
<path d="M798.985 1340.51H698.254V916.845H828.612L915.714 1187.04H916.899L1004 916.845H1134.36V1340.51H1033.63V1076.83H1032.44L953.636 1340.51H878.977L800.17 1076.83H798.985V1340.51ZM1483.03 1340.51H1158.32V916.845H1479.48V1003.95H1264.98V1079.2H1449.85V1166.3H1264.98V1253.4H1483.03V1340.51Z" fill="#511124"/>
<path d="M871.867 907.562C743.879 907.562 694.699 850.679 694.699 745.208V474.42H801.355V745.208C801.355 800.314 825.056 820.46 871.867 820.46C918.677 820.46 942.378 800.314 942.378 745.208V474.42H1049.03V745.208C1049.03 850.679 999.854 907.562 871.867 907.562Z" fill="#511124"/>
</g>
</svg>
