<svg width="1476" height="1810" viewBox="0 0 1476 1810" fill="none" xmlns="http://www.w3.org/2000/svg">
<mask id="mask0_329_421" style="mask-type:alpha" maskUnits="userSpaceOnUse" x="0" y="0" width="1476" height="1810">
<rect x="0.5017" y="0.5017" width="1475" height="1809" fill="white" stroke="black" stroke-width="1.0034"/>
</mask>
<g mask="url(#mask0_329_421)">
<path d="M518.829 1187.85H350.766L202.71 964.571L143.488 1033.4V1187.85H-0.565972V615.64H143.488V859.731L348.365 615.64H502.823L287.542 866.134L518.829 1187.85ZM648.021 1187.85H503.967V615.64H648.021V1187.85ZM1078.43 1187.85H679.877V615.64H823.931V1070.21H1078.43V1187.85ZM1505.18 1187.85H1106.63V615.64H1250.68V1070.21H1505.18V1187.85Z" fill="#F8D7B8"/>
<path d="M263.049 607.24C113.393 607.24 0.550926 531.211 0.550926 399.962H146.206C146.206 466.387 196.624 491.196 261.449 491.196C315.069 491.196 342.279 469.588 342.279 439.977C342.279 391.159 285.458 378.354 206.228 354.345C106.991 323.934 18.1575 285.519 18.1575 183.081C18.1575 58.2339 115.794 9.41563 239.04 9.41563C372.691 9.41563 477.53 79.842 481.531 195.886H335.877C329.474 151.869 294.261 125.459 239.04 125.459C195.824 125.459 165.413 139.865 165.413 172.677C165.413 211.091 197.425 223.896 270.252 245.504C378.293 277.516 489.534 307.928 489.534 426.372C489.534 536.013 406.303 607.24 263.049 607.24Z" fill="#F8D7B8"/>
<path d="M1247.23 1794.7C1097.58 1794.7 984.735 1718.67 984.735 1587.42H1130.39C1130.39 1653.85 1180.81 1678.66 1245.63 1678.66C1299.25 1678.66 1326.46 1657.05 1326.46 1627.44C1326.46 1578.62 1269.64 1565.82 1190.41 1541.81C1091.17 1511.4 1002.34 1472.98 1002.34 1370.54C1002.34 1245.7 1099.98 1196.88 1223.22 1196.88C1356.87 1196.88 1461.71 1267.3 1465.72 1383.35H1320.06C1313.66 1339.33 1278.44 1312.92 1223.22 1312.92C1180.01 1312.92 1149.6 1327.33 1149.6 1360.14C1149.6 1398.55 1181.61 1411.36 1254.44 1432.97C1362.48 1464.98 1473.72 1495.39 1473.72 1613.83C1473.72 1723.47 1390.49 1794.7 1247.23 1794.7Z" fill="#F8D7B8"/>
</g>
</svg>
