<svg width="44" height="44" viewBox="0 0 44 44" fill="none" xmlns="http://www.w3.org/2000/svg">
<g clip-path="url(#clip0_258_347)">
<circle cx="22" cy="22" r="22" fill="#004449"/>
<path d="M20.9164 6.24853C21.5991 5.91715 22.4009 5.91716 23.0836 6.24853L23.0837 6.24848C23.6861 6.54082 24.0003 7.05459 24.1512 7.31913C24.3223 7.61897 24.4976 8.00758 24.6726 8.39169L27.5938 14.8027L34.7296 15.5395C35.1571 15.5837 35.5891 15.6267 35.9334 15.6931C36.2325 15.7508 36.8151 15.8811 37.2819 16.3335L37.3041 16.3553L37.3043 16.3556C37.8374 16.8885 38.085 17.6345 37.9739 18.372C37.8758 19.0228 37.4733 19.474 37.2629 19.696C37.0243 19.9477 36.7007 20.2309 36.3814 20.5123L36.3814 20.5124L31.0511 25.2114L32.5399 32.0778C32.6291 32.4892 32.7208 32.9044 32.7626 33.2452C32.7994 33.5459 32.854 34.1422 32.5423 34.7252L32.5423 34.7252C32.1889 35.386 31.5403 35.847 30.7888 35.9715L30.7884 35.9716C30.1256 36.0813 29.5629 35.8464 29.2819 35.7192C28.9634 35.575 28.5881 35.3614 28.2156 35.1513L22 31.6443L15.7845 35.1513C15.4121 35.3614 15.0367 35.575 14.7182 35.7192C14.4372 35.8464 13.8745 36.0813 13.2118 35.9716L13.2114 35.9715C12.4603 35.8471 11.8114 35.3865 11.4579 34.7253L11.4435 34.698C11.1478 34.1237 11.2013 33.5412 11.2376 33.2452C11.2794 32.9044 11.371 32.4892 11.4602 32.0778L12.9489 25.2114L7.61877 20.5124L7.61872 20.5123C7.29946 20.2309 6.97582 19.9477 6.73723 19.696C6.52675 19.474 6.1243 19.0229 6.02615 18.3721L6.0261 18.372C5.91494 17.6344 6.16269 16.8882 6.69599 16.3553C7.16641 15.8853 7.76301 15.7517 8.06677 15.6931C8.41108 15.6267 8.84308 15.5837 9.27053 15.5395L16.4061 14.8027L19.4587 8.10424C19.5899 7.81884 19.7206 7.54401 19.8488 7.31913C19.9997 7.05459 20.314 6.54087 20.9164 6.24853ZM19.2993 16.2652L19.2993 16.2652C19.2326 16.4115 19.0686 16.8169 18.7695 17.1417L18.7694 17.1418C18.541 17.3898 18.2618 17.5884 17.9497 17.7243L17.9497 17.7243C17.5414 17.9022 17.0966 17.9295 16.9338 17.9463L16.9339 17.9464L10.3371 18.6275L15.2648 22.9716C15.3831 23.0759 15.7086 23.3397 15.9318 23.7L15.9531 23.7352L15.9536 23.736C16.1185 24.0158 16.2238 24.3257 16.2627 24.6469L16.2663 24.678V24.6781C16.3131 25.1129 16.2023 25.5352 16.1683 25.6918L16.1683 25.6919L14.7919 32.0398L20.5379 28.7977C20.6813 28.7168 21.0561 28.4843 21.4922 28.3934C21.4929 28.3932 21.4937 28.3931 21.4945 28.3929C21.8174 28.326 22.1507 28.324 22.4743 28.3867L22.5056 28.3929L22.5079 28.3934C22.944 28.4843 23.3188 28.7168 23.4621 28.7977L29.2081 32.0398L27.8318 25.692L27.8158 25.6211C27.7724 25.429 27.6928 25.0583 27.7338 24.6778C27.7696 24.3449 27.8767 24.0242 28.0466 23.736C28.27 23.357 28.6141 23.0785 28.7351 22.9718L28.7352 22.9716L33.663 18.6275L27.0662 17.9464C26.9032 17.9296 26.4585 17.9021 26.0503 17.7243L26.0499 17.7241C25.739 17.5886 25.4599 17.3906 25.2311 17.1422C24.9317 16.8172 24.7673 16.4113 24.7009 16.2657L24.7007 16.2651L22 10.3382L19.2993 16.2652Z" fill="#0BF477"/>
</g>
<defs>
<clipPath id="clip0_258_347">
<rect width="44" height="44" fill="white"/>
</clipPath>
</defs>
</svg>
