<svg width="44" height="44" viewBox="0 0 44 44" fill="none" xmlns="http://www.w3.org/2000/svg">
<g clip-path="url(#clip0_258_339)">
<circle cx="22" cy="22" r="22" fill="#004449"/>
<path d="M33.6667 22C33.6667 15.5567 28.4433 10.3333 22 10.3333C15.5567 10.3333 10.3333 15.5567 10.3333 22C10.3333 28.4433 15.5567 33.6667 22 33.6667C28.4433 33.6666 33.6666 28.4433 33.6667 22ZM37 22C37 30.2843 30.2843 37 22 37C13.7157 37 7.00001 30.2843 7 22C7 13.7157 13.7157 7 22 7C30.2843 7.00001 37 13.7157 37 22Z" fill="#0BF477"/>
<path d="M34.2203 15.0938C32.8558 16.6911 31.0745 17.9788 29.0387 18.8776L28.9416 18.9201C26.865 19.8207 24.57 20.301 22.2432 20.3324H22.2432C19.9166 20.3637 17.605 19.9455 15.496 19.1026C13.3874 18.2598 11.5233 17.0089 10.0757 15.4289L12.5334 13.1771C13.6121 14.3544 15.0455 15.3328 16.7331 16.0073C18.4204 16.6816 20.2949 17.0249 22.1983 16.9993L22.2875 16.9979C24.1599 16.9613 25.9854 16.5688 27.6153 15.862C29.2713 15.1438 30.6597 14.1299 31.6858 12.9287L34.2203 15.0938Z" fill="#0BF477"/>
<path d="M15.4961 24.8983C17.6051 24.0556 19.9166 23.6373 22.2432 23.6686C24.57 23.7 26.865 24.1804 28.9416 25.0809C31.0179 25.9814 32.8341 27.2846 34.2203 28.9071L31.6859 31.0722C30.6597 29.8711 29.2712 28.8572 27.6153 28.139C25.9595 27.421 24.1019 27.0273 22.1983 27.0017C20.295 26.976 18.4204 27.3193 16.7331 27.9936C15.0455 28.6681 13.6121 29.6466 12.5334 30.8239L10.0757 28.5721C11.5233 26.9921 13.3874 25.7412 15.496 24.8984L15.4961 24.8983Z" fill="#0BF477"/>
<path d="M23.6663 8.66699V35.3336H20.333V8.66699H23.6663Z" fill="#0BF477"/>
</g>
<defs>
<clipPath id="clip0_258_339">
<rect width="44" height="44" fill="white"/>
</clipPath>
</defs>
</svg>
