<svg width="1277" height="1623" viewBox="0 0 1277 1623" fill="none" xmlns="http://www.w3.org/2000/svg">
<mask id="mask0_329_432" style="mask-type:alpha" maskUnits="userSpaceOnUse" x="0" y="0" width="1277" height="1623">
<rect x="0.5" y="0.5" width="1276" height="1622" fill="#511123" stroke="black"/>
</mask>
<g mask="url(#mask0_329_432)">
<path d="M656.302 907.945H548.997V569.338H425V481.706H779.703V569.338H656.302V907.945Z" fill="#FF6333"/>
<path d="M983.479 454.777H876.174V28.5381H983.479L1132.51 281.897H1133.71V28.5381H1241.01V454.777H1133.71L984.671 201.418H983.479V454.777Z" fill="#FF6333"/>
<path d="M659.43 464.316C524.106 464.316 448.396 370.126 448.396 241.36C448.396 113.19 524.106 19 659.43 19C793.561 19 870.463 113.19 870.463 241.36C870.463 370.126 793.561 464.316 659.43 464.316ZM659.43 376.683C736.928 376.683 760.773 315.877 760.773 241.36C760.773 167.438 736.928 106.632 659.43 106.632C581.336 106.632 558.086 167.438 558.086 241.36C558.086 315.877 581.336 376.683 659.43 376.683Z" fill="#FF6333"/>
<path d="M252.823 464.316C117.499 464.316 48.9434 370.126 48.9434 243.148C48.9434 112.594 121.076 19 255.804 19C372.051 19 434.049 88.1521 444.183 187.111H334.494C326.744 140.612 307.668 106.632 251.034 106.632C180.094 106.632 158.633 161.477 158.633 241.36C158.633 321.838 180.094 376.683 251.034 376.683C308.264 376.683 327.34 342.703 334.494 295.012H444.183C434.645 392.779 370.262 464.316 252.823 464.316Z" fill="#FF6333"/>
<path d="M805.378 1470.6L805.378 1363.29L1143.98 1363.29L1143.98 1239.3L1231.62 1239.3L1231.62 1594L1143.98 1594L1143.98 1470.6L805.378 1470.6Z" fill="#FF6333"/>
<path d="M795.852 1062.55C795.852 927.224 890.042 858.668 1017.02 858.668C1147.57 858.668 1241.17 930.801 1241.17 1065.53C1241.17 1181.78 1172.02 1243.77 1073.06 1253.91L1073.06 1144.22C1119.56 1136.47 1153.54 1117.39 1153.54 1060.76C1153.54 989.818 1098.69 968.357 1018.81 968.357C938.329 968.357 883.485 989.818 883.485 1060.76C883.485 1117.99 917.465 1137.06 965.156 1144.22L965.156 1253.91C867.389 1244.37 795.852 1179.99 795.852 1062.55Z" fill="#FF6333"/>
<path d="M805.39 590.702L805.39 475.647L1231.63 637.797L1231.63 745.698L805.389 909.04L805.389 791.601L894.214 764.179L894.214 618.125L805.39 590.702ZM1133.27 690.853L975.885 642.566L975.885 740.333L1133.27 692.046L1133.27 690.853Z" fill="#FF6333"/>
</g>
</svg>
