<svg width="1612" height="968" viewBox="0 0 1612 968" fill="none" xmlns="http://www.w3.org/2000/svg">
<mask id="mask0_329_428" style="mask-type:alpha" maskUnits="userSpaceOnUse" x="0" y="0" width="1612" height="968">
<rect x="0.5" y="0.5" width="1611" height="967" fill="#FF6333" stroke="black"/>
</mask>
<g mask="url(#mask0_329_428)">
<path d="M402 628.498L402 724.618L20.19 724.618L20.19 539.32C20.19 459.754 61.842 410.092 141.942 410.092C222.042 410.092 263.694 459.754 263.694 539.32L263.694 628.498L402 628.498ZM185.196 628.498L185.196 561.748C185.196 528.64 173.982 508.348 141.942 508.348C109.902 508.348 98.688 528.64 98.688 561.748L98.688 628.498L185.196 628.498ZM410.544 217.831C410.544 339.049 326.172 406.867 210.828 406.867C96.018 406.867 11.646 339.049 11.646 217.831C11.646 97.6807 96.018 28.7947 210.828 28.7947C326.172 28.7947 410.544 97.6807 410.544 217.831ZM332.046 217.831C332.046 148.411 277.578 127.051 210.828 127.051C144.612 127.051 90.144 148.411 90.144 217.831C90.144 287.785 144.612 308.611 210.828 308.611C277.578 308.611 332.046 287.785 332.046 217.831ZM797 846.499L797 942.619L415.19 942.619L415.19 762.661C415.19 677.755 454.706 626.491 524.126 626.491C577.526 626.491 609.032 656.395 619.712 703.921L620.78 703.921C637.334 608.335 785.252 643.045 791.66 621.151L797 621.151L797 721.009C780.98 739.699 664.034 704.989 664.034 786.691L664.034 846.499L797 846.499ZM585.536 846.499L585.536 781.351C585.536 742.903 571.652 722.611 539.612 722.611C507.572 722.611 493.688 742.903 493.688 781.351L493.688 846.499L585.536 846.499ZM797 424.643L797 520.763L493.688 520.763L493.688 631.835L415.19 631.835L415.19 314.105L493.688 314.105L493.688 424.643L797 424.643ZM797 199.295L797 295.415L415.19 295.415L415.19 11.3271L493.688 11.3271L493.688 199.295L577.526 199.295L577.526 46.0371L656.024 46.0371L656.024 199.295L797 199.295ZM1200.54 641.318C1200.54 762.536 1116.17 830.354 1000.83 830.354C886.018 830.354 801.646 762.536 801.646 641.318C801.646 521.168 886.018 452.282 1000.83 452.282C1116.17 452.282 1200.54 521.168 1200.54 641.318ZM1122.05 641.318C1122.05 571.898 1067.58 550.538 1000.83 550.538C934.612 550.538 880.144 571.898 880.144 641.318C880.144 711.272 934.612 732.098 1000.83 732.098C1067.58 732.098 1122.05 711.272 1122.05 641.318ZM1192 159.875L1192 425.807L810.19 425.807L810.19 329.687L1113.5 329.687L1113.5 159.875L1192 159.875ZM1192 44.9357L1192 141.056L810.19 141.056L810.19 44.9357L1192 44.9357ZM1595.54 217.831C1595.54 339.049 1511.17 406.867 1395.83 406.867C1281.02 406.867 1196.65 339.049 1196.65 217.831C1196.65 97.6807 1281.02 28.7947 1395.83 28.7947C1511.17 28.7947 1595.54 97.6807 1595.54 217.831ZM1517.05 217.831C1517.05 148.411 1462.58 127.051 1395.83 127.051C1329.61 127.051 1275.14 148.411 1275.14 217.831C1275.14 287.785 1329.61 308.611 1395.83 308.611C1462.58 308.611 1517.05 287.785 1517.05 217.831Z" fill="#FF6333"/>
</g>
</svg>
