<svg width="1332" height="1824" viewBox="0 0 1332 1824" fill="none" xmlns="http://www.w3.org/2000/svg">
<mask id="mask0_329_443" style="mask-type:alpha" maskUnits="userSpaceOnUse" x="0" y="0" width="1332" height="1824">
<rect x="0.5" y="0.5" width="1331" height="1823" fill="white" stroke="black"/>
</mask>
<g mask="url(#mask0_329_443)">
<path d="M107 444H-0.999999V15H201.2C296.6 15 354.2 59.4 354.2 137.4C354.2 197.4 320.6 232.8 267.2 244.8V246C374.6 264.6 335.6 430.8 360.2 438V444H248C227 426 266 294.6 174.2 294.6H107V444ZM107 206.4H180.2C223.4 206.4 246.2 190.8 246.2 154.8C246.2 118.8 223.4 103.2 180.2 103.2H107V206.4ZM692.886 444H364.086V15H689.286V103.2H472.086V179.4H659.286V267.6H472.086V355.8H692.886V444ZM809.047 444H701.047V15H1020.25V103.2H809.047V197.4H981.247V285.6H809.047V444ZM1349.82 444H1021.02V15H1346.22V103.2H1129.02V179.4H1316.22V267.6H1129.02V355.8H1349.82V444Z" fill="#FF6333"/>
<path d="M177.953 881H69.9531V452H272.153C367.553 452 425.153 496.4 425.153 574.4C425.153 634.4 391.553 669.8 338.153 681.8V683C445.553 701.6 406.553 867.8 431.153 875V881H318.953C297.953 863 336.953 731.6 245.153 731.6H177.953V881ZM177.953 643.4H251.153C294.353 643.4 317.153 627.8 317.153 591.8C317.153 555.8 294.353 540.2 251.153 540.2H177.953V643.4ZM763.839 881H435.039V452H760.239V540.2H543.039V616.4H730.239V704.6H543.039V792.8H763.839V881ZM107.641 1321H-0.359374V892H107.641L257.641 1147H258.841V892H366.841V1321H258.841L108.841 1066H107.641V1321ZM578.294 1330.6C442.094 1330.6 373.094 1235.8 373.094 1108C373.094 976.6 445.694 882.4 581.294 882.4C698.294 882.4 760.694 952 770.894 1051.6H660.494C652.694 1004.8 633.494 970.6 576.494 970.6C505.094 970.6 483.494 1025.8 483.494 1106.2C483.494 1187.2 505.094 1242.4 576.494 1242.4C634.094 1242.4 653.294 1208.2 660.494 1160.2H770.894C761.294 1258.6 696.494 1330.6 578.294 1330.6ZM417.503 1761H88.7031V1332H413.903V1420.2H196.703V1496.4H383.903V1584.6H196.703V1672.8H417.503V1761ZM598.464 1770.6C486.264 1770.6 401.664 1713.6 401.664 1615.2H510.864C510.864 1665 548.664 1683.6 597.264 1683.6C637.464 1683.6 657.864 1667.4 657.864 1645.2C657.864 1608.6 615.264 1599 555.864 1581C481.464 1558.2 414.864 1529.4 414.864 1452.6C414.864 1359 488.064 1322.4 580.464 1322.4C680.664 1322.4 759.264 1375.2 762.264 1462.2H653.064C648.264 1429.2 621.864 1409.4 580.464 1409.4C548.064 1409.4 525.264 1420.2 525.264 1444.8C525.264 1473.6 549.264 1483.2 603.864 1499.4C684.864 1523.4 768.264 1546.2 768.264 1635C768.264 1717.2 705.864 1770.6 598.464 1770.6Z" fill="#FF6333"/>
</g>
</svg>
