<svg width="44" height="44" viewBox="0 0 44 44" fill="none" xmlns="http://www.w3.org/2000/svg">
<g clip-path="url(#clip0_258_352)">
<circle cx="22" cy="22" r="22" fill="#004449"/>
<path d="M22.7885 6.29151C23.8605 6.29151 24.7607 6.28965 25.4872 6.37783C26.2428 6.46953 26.9325 6.66992 27.5378 7.15547L27.5659 7.17832C28.1538 7.66069 28.4922 8.28193 28.7417 8.98843C28.955 9.59234 29.1297 10.3409 29.3259 11.2196L29.8455 13.5577L27.7541 14.0224L27.232 11.674C27.0345 10.7912 26.8881 10.1737 26.7215 9.70184C26.5464 9.20609 26.3855 8.98355 26.2138 8.8403L26.1972 8.82666C26.0192 8.68388 25.7679 8.57009 25.2292 8.50471C24.6614 8.43581 23.9137 8.43395 22.7885 8.43395H20.5281C19.403 8.43395 18.6553 8.43581 18.0876 8.50471C17.5656 8.56805 17.3135 8.6768 17.1364 8.81336L17.1195 8.82666C16.9415 8.96944 16.7759 9.19004 16.5952 9.7018C16.4047 10.2411 16.2408 10.9706 15.9967 12.0689L15.5626 14.0224L13.4712 13.5577L13.9053 11.6042C14.1378 10.5577 14.3313 9.67865 14.575 8.98847C14.8284 8.27077 15.1736 7.64102 15.7789 7.15547L15.8074 7.13292C16.4058 6.66369 17.0856 6.4681 17.8294 6.37783C18.556 6.28965 19.4561 6.29151 20.5281 6.29151H22.7885Z" fill="#0BF477"/>
<path d="M16.0847 31.6175C16.2822 32.5003 16.4286 33.1179 16.5952 33.5897C16.7759 34.1015 16.9415 34.3221 17.1195 34.4648C17.2975 34.6076 17.5488 34.7215 18.0876 34.7868C18.6553 34.8557 19.403 34.8576 20.5281 34.8576H22.7885C23.9137 34.8576 24.6614 34.8557 25.2292 34.7868C25.7679 34.7215 26.0192 34.6076 26.1972 34.4648C26.3752 34.3221 26.5408 34.1015 26.7215 33.5897C26.9119 33.0504 27.076 32.3209 27.32 31.2226L27.7541 29.2691L29.8455 29.7338L29.4115 31.6873C29.1789 32.7338 28.9854 33.6129 28.7417 34.3031C28.4883 35.0208 28.143 35.6506 27.5378 36.1361C26.9325 36.6216 26.2428 36.822 25.4872 36.9137C24.7607 37.0019 23.8605 37 22.7885 37H20.5281C19.4562 37 18.5561 37.0018 17.8295 36.9137C17.0739 36.822 16.3842 36.6216 15.7789 36.1361C15.1736 35.6505 14.8284 35.0208 14.575 34.3031C14.3313 33.6129 14.1378 32.7338 13.9053 31.6873L13.4712 29.7339L15.5626 29.269L16.0847 31.6175Z" fill="#0BF477"/>
<path d="M31.2994 21.6457C31.2994 16.3212 26.9829 12.0047 21.6584 12.0047C16.3338 12.0047 12.0174 16.3212 12.0174 21.6457C12.0174 26.9703 16.3338 31.2867 21.6584 31.2867C26.9829 31.2867 31.2994 26.9703 31.2994 21.6457ZM33.4418 21.6457C33.4418 28.1535 28.1661 33.4292 21.6584 33.4292C15.1506 33.4292 9.875 28.1535 9.875 21.6457C9.875 15.1379 15.1506 9.8623 21.6584 9.8623C28.1661 9.8623 33.4418 15.1379 33.4418 21.6457Z" fill="#0BF477"/>
<path d="M20.5874 17.2509C20.5874 16.6593 21.067 16.1797 21.6586 16.1797C22.2502 16.1797 22.7298 16.6593 22.7298 17.2509V21.1897L25.2577 23.6202C25.6841 24.0302 25.6974 24.7083 25.2874 25.1348C24.8773 25.5613 24.1992 25.5746 23.7727 25.1645L20.9162 22.4179C20.7061 22.216 20.5874 21.9371 20.5874 21.6457V17.2509Z" fill="#0BF477"/>
</g>
<defs>
<clipPath id="clip0_258_352">
<rect width="44" height="44" fill="white"/>
</clipPath>
</defs>
</svg>
